<svg xmlns="http://www.w3.org/2000/svg" width="117mm" height="75mm" viewBox="0 0 117 75"><path d="m6.68 286.084-6.118-10.6 6.119-10.598h12.238l6.12 10.599-6.12 10.599z" style="opacity:1;fill:gray;fill-opacity:1;fill-rule:nonzero;stroke:#000009;stroke-width:.45303956;stroke-miterlimit:4;stroke-dasharray:none;stroke-opacity:1" transform="translate(0 -222)"/><path d="m25.038 296.682-6.119-10.599 6.12-10.598h12.238l6.12 10.598-6.12 10.6z" style="opacity:1;fill:gray;fill-opacity:1;fill-rule:nonzero;stroke:#000009;stroke-width:.45303956;stroke-miterlimit:4;stroke-dasharray:none;stroke-opacity:1" transform="translate(0 -222)"/><path d="m43.396 286.083-6.12-10.598 6.12-10.6h12.239l6.119 10.6-6.12 10.598z" style="opacity:1;fill:gray;fill-opacity:1;fill-rule:nonzero;stroke:#000009;stroke-width:.45303956;stroke-miterlimit:4;stroke-dasharray:none;stroke-opacity:1" transform="translate(0 -222)"/><path d="m61.754 275.484-6.12-10.598 6.12-10.6h12.238l6.12 10.6-6.12 10.598zM61.754 296.682l-6.12-10.599 6.12-10.598h12.238l6.12 10.598-6.12 10.6z" style="opacity:1;fill:gray;fill-opacity:1;fill-rule:nonzero;stroke:#000009;stroke-width:.45303956;stroke-miterlimit:4;stroke-dasharray:none;stroke-opacity:1" transform="translate(0 -222)"/><path d="m98.47 296.682-6.12-10.599 6.12-10.598h12.237l6.12 10.598-6.12 10.6z" style="opacity:1;fill:#0098ff;fill-opacity:1;fill-rule:nonzero;stroke:#000009;stroke-width:.45303956;stroke-miterlimit:4;stroke-dasharray:none;stroke-opacity:1" transform="translate(0 -222)"/><path d="m80.111 286.083-6.119-10.599 6.12-10.598H92.35l6.12 10.598-6.12 10.6zM98.47 275.484l-6.12-10.598 6.12-10.6h12.237l6.12 10.6-6.12 10.598z" style="opacity:1;fill:#0098ff;fill-opacity:1;fill-rule:nonzero;stroke:#000009;stroke-width:.45303956;stroke-miterlimit:4;stroke-dasharray:none;stroke-opacity:1" transform="translate(0 -222)"/><path d="m80.111 264.886-6.119-10.6 6.12-10.598H92.35l6.12 10.599-6.12 10.599zM98.47 254.287l-6.12-10.6 6.12-10.598h12.237l6.12 10.599-6.12 10.599z" style="opacity:1;fill:#0098ff;fill-opacity:1;fill-rule:nonzero;stroke:#000009;stroke-width:.45303956;stroke-miterlimit:4;stroke-dasharray:none;stroke-opacity:1" transform="translate(0 -222)"/><path d="m80.111 243.688-6.119-10.599 6.12-10.599H92.35l6.12 10.6-6.12 10.598z" style="opacity:1;fill:#199239;fill-opacity:1;fill-rule:nonzero;stroke:#000409;stroke-width:.45303956;stroke-miterlimit:4;stroke-dasharray:none;stroke-opacity:1" transform="translate(0 -222)"/><path d="M6.68 243.688.563 233.089 6.68 222.49h12.238l6.12 10.6-6.12 10.598zM25.038 254.287l-6.119-10.6 6.12-10.598h12.238l6.12 10.599-6.12 10.599z" style="opacity:1;fill:#6700c5;fill-opacity:1;fill-rule:nonzero;stroke:#000009;stroke-width:.45303956;stroke-miterlimit:4;stroke-dasharray:none;stroke-opacity:1" transform="translate(0 -222)"/><path d="m6.68 264.886-6.118-10.6 6.119-10.598h12.238l6.12 10.599-6.12 10.599z" style="opacity:1;fill:#6700c5;fill-opacity:1;fill-rule:nonzero;stroke:#000009;stroke-width:.45303956;stroke-miterlimit:4;stroke-dasharray:none;stroke-opacity:1" transform="translate(0 -222)"/><path d="m25.038 275.484-6.119-10.598 6.12-10.6h12.238l6.12 10.6-6.12 10.598z" style="opacity:1;fill:#6700c5;fill-opacity:1;fill-rule:nonzero;stroke:#000009;stroke-width:.45303956;stroke-miterlimit:4;stroke-dasharray:none;stroke-opacity:1" transform="translate(0 -222)"/><path d="m61.754 254.287-6.12-10.6 6.12-10.598h12.238l6.12 10.599-6.12 10.599z" style="opacity:1;fill:#199239;fill-opacity:1;fill-rule:nonzero;stroke:#000409;stroke-width:.45303956;stroke-miterlimit:4;stroke-dasharray:none;stroke-opacity:1" transform="translate(0 -222)"/><path d="m43.396 243.688-6.12-10.599 6.12-10.599h12.239l6.119 10.6-6.12 10.598zM43.396 264.886l-6.12-10.6 6.12-10.598h12.239l6.119 10.599-6.12 10.599z" style="opacity:1;fill:#199239;fill-opacity:1;fill-rule:nonzero;stroke:#000409;stroke-width:.45303956;stroke-miterlimit:4;stroke-dasharray:none;stroke-opacity:1" transform="translate(0 -222)"/><path d="m23.393 254.313-5.218 9.038H7.74l-5.218-9.038 5.218-9.038h10.436zM41.751 264.912l-5.218 9.038H26.097l-5.218-9.038 5.218-9.038h10.436zM23.393 275.512l-5.218 9.038H7.74l-5.218-9.038 5.218-9.038h10.436Z" style="opacity:1;fill:none;fill-opacity:1;fill-rule:nonzero;stroke:red;stroke-width:.97600001;stroke-miterlimit:4;stroke-dasharray:none;stroke-dashoffset:0;stroke-opacity:1" transform="translate(0 -222)"/></svg>