<svg xmlns="http://www.w3.org/2000/svg" fill="none" viewBox="0 0 348 348"><path stroke="#000" stroke-width="2" d="M5.079 5.776h336.913v337.67H5.08z"/><path stroke="#000" stroke-width="2" d="M282.734 40.554c0-8.376 6.966-15.165 15.56-15.165 4.126 0 8.084 1.597 11.001 4.441 2.918 2.844 4.558 6.702 4.558 10.724 0 8.376-6.966 15.165-15.56 15.165-8.593 0-15.559-6.79-15.559-15.165z"/><path d="M14.945 17.003h234.493v72.356H14.945z" style="opacity:1;fill:#fff;fill-opacity:1;fill-rule:nonzero;stroke:#000;stroke-width:3.88980699;stroke-miterlimit:4;stroke-dasharray:none;stroke-dashoffset:14.17322826;stroke-opacity:1"/><path d="M14.945 105.003h51.891v51.891H14.945zM72.945 105.003h51.891v51.891H72.945zM130.945 105.003h51.891v51.891h-51.891zM188.945 105.003h51.891v51.891h-51.891zM246.945 105.003h51.891v51.891h-51.891z" style="opacity:1;fill:#fff;fill-opacity:1;fill-rule:nonzero;stroke:#000;stroke-width:3.10900831;stroke-miterlimit:4;stroke-dasharray:none;stroke-dashoffset:14.17322826;stroke-opacity:1"/><path d="M17.204 174.393h47.442v47.442H17.204zM17.204 230.393h47.442v47.442H17.204zM17.204 286.393h47.442v47.442H17.204zM75.204 230.393h47.442v47.442H75.204zM209.854 196.043h120.43v57.348h-120.43zM209.854 274.043h120.43v57.348h-120.43z" style="opacity:1;fill:#fff;fill-opacity:1;fill-rule:nonzero;stroke:#000;stroke-width:3.77952766;stroke-miterlimit:4;stroke-dasharray:none;stroke-dashoffset:14.17322826;stroke-opacity:1"/><path d="M58.001 213.42H23.198L40.6 183.28z" style="opacity:1;fill:#fff;fill-opacity:1;fill-rule:nonzero;stroke:#000;stroke-width:3.0004859;stroke-miterlimit:4;stroke-dasharray:none;stroke-dashoffset:14.17322826;stroke-opacity:1"/><path d="M58.001-293.78H23.198L40.6-323.92z" style="opacity:1;fill:#fff;fill-opacity:1;fill-rule:nonzero;stroke:#000;stroke-width:3.0004859;stroke-miterlimit:4;stroke-dasharray:none;stroke-dashoffset:14.17322826;stroke-opacity:1" transform="scale(1 -1)"/><path d="M75.204 174.393h47.442v47.442H75.204z" style="opacity:1;fill:#fff;fill-opacity:1;fill-rule:nonzero;stroke:#000;stroke-width:3.77952766;stroke-miterlimit:4;stroke-dasharray:none;stroke-dashoffset:14.17322826;stroke-opacity:1"/><path d="M116.001 213.42H81.198L98.6 183.28z" style="opacity:1;fill:#fff;fill-opacity:1;fill-rule:nonzero;stroke:#000;stroke-width:3.0004859;stroke-miterlimit:4;stroke-dasharray:none;stroke-dashoffset:14.17322826;stroke-opacity:1"/><path d="M75.204 286.393h47.442v47.442H75.204z" style="opacity:1;fill:#fff;fill-opacity:1;fill-rule:nonzero;stroke:#000;stroke-width:3.77952766;stroke-miterlimit:4;stroke-dasharray:none;stroke-dashoffset:14.17322826;stroke-opacity:1"/><path d="M116.001-293.78H81.198L98.6-323.92z" style="opacity:1;fill:#fff;fill-opacity:1;fill-rule:nonzero;stroke:#000;stroke-width:3.0004859;stroke-miterlimit:4;stroke-dasharray:none;stroke-dashoffset:14.17322826;stroke-opacity:1" transform="scale(1 -1)"/></svg>